/* XPM */
static char *bf478da30dfb4049fae2beaa7fedd8afge8iRoUdmxop6b9J[] = {
/* columns rows colors chars-per-pixel */
"64 64 247 2 ",
"   c #000000",
".  c #090503",
"X  c #040B03",
"o  c #050408",
"O  c #0B0C0B",
"+  c #090A08",
"@  c #150B07",
"#  c #041403",
"$  c #0B130A",
"%  c #14150D",
"&  c #141513",
"*  c #1A1B17",
"=  c #261B15",
"-  c #2E180F",
";  c #1D211C",
":  c #1C2415",
">  c #19220F",
",  c #27231B",
"<  c #362518",
"1  c #1F1F21",
"2  c #1D2623",
"3  c #282725",
"4  c #332B23",
"5  c #2D322D",
"6  c #34332B",
"7  c #38362C",
"8  c #393935",
"9  c #263133",
"0  c #481509",
"q  c #4E1D14",
"w  c #492416",
"e  c #52281C",
"r  c #66291A",
"t  c #70311F",
"y  c #5C2E23",
"u  c #453527",
"i  c #583727",
"p  c #4B3C33",
"a  c #453C36",
"s  c #4C362B",
"d  c #682C21",
"f  c #6C3B2D",
"g  c #673728",
"h  c #78382A",
"j  c #683C32",
"k  c #783D33",
"l  c #722E22",
"z  c #681F16",
"x  c #3D423A",
"c  c #44453D",
"v  c #4C433C",
"b  c #4B493D",
"n  c #474536",
"m  c #57463A",
"M  c #514C35",
"N  c #654839",
"B  c #784538",
"V  c #64533D",
"C  c #724B33",
"Z  c #243C42",
"A  c #364543",
"S  c #494A46",
"D  c #544B43",
"F  c #594B46",
"G  c #4B514C",
"H  c #5A534B",
"J  c #59564A",
"K  c #5C5B52",
"L  c #585753",
"P  c #4E5251",
"I  c #675649",
"U  c #775748",
"Y  c #695B53",
"T  c #765D55",
"R  c #6F4D47",
"E  c #5D615D",
"W  c #65645D",
"Q  c #6A6558",
"!  c #76655A",
"~  c #72624A",
"^  c #5E6464",
"/  c #686964",
"(  c #766B63",
")  c #6B716A",
"_  c #777367",
"`  c #757876",
"'  c #696D72",
"]  c #843B2D",
"[  c #853E33",
"{  c #87483B",
"}  c #8B523D",
"|  c #934B3C",
" . c #874A47",
".. c #885648",
"X. c #965648",
"o. c #885B54",
"O. c #995D55",
"+. c #924C45",
"@. c #A25E58",
"#. c #A25042",
"$. c #886858",
"%. c #9D6454",
"&. c #9B655B",
"*. c #9B6B5D",
"=. c #936759",
"-. c #9B755B",
";. c #8D634C",
":. c #A26453",
">. c #A66A5B",
",. c #A7795D",
"<. c #B06D59",
"1. c #846E67",
"2. c #986A64",
"3. c #897369",
"4. c #997568",
"5. c #947C76",
"6. c #887673",
"7. c #A56C64",
"8. c #A37363",
"9. c #A47C6B",
"0. c #A97868",
"q. c #B47B6B",
"w. c #B67469",
"e. c #A87A73",
"r. c #B47C73",
"t. c #BA7A74",
"y. c #B96F64",
"u. c #C1796F",
"i. c #7C817B",
"p. c #97847B",
"a. c #9D806E",
"s. c #A9836D",
"d. c #B68469",
"f. c #AC8374",
"g. c #A88879",
"h. c #B48374",
"j. c #BD837A",
"k. c #B38C7C",
"l. c #BB8C7D",
"z. c #B78577",
"x. c #BC937A",
"c. c #C3847C",
"v. c #C48B7B",
"b. c #C88878",
"n. c #C5947C",
"m. c #CB927D",
"M. c #C99678",
"N. c #D19B7D",
"B. c #C38167",
"V. c #7F7F83",
"C. c #7F8480",
"Z. c #938C89",
"A. c #A78D83",
"S. c #B88C84",
"D. c #AA948A",
"F. c #B59484",
"G. c #BC9B8C",
"H. c #B89789",
"J. c #BD9D92",
"K. c #B59E95",
"L. c #AE9D95",
"P. c #BDA294",
"I. c #B8A597",
"U. c #BDA18D",
"Y. c #BFA8A0",
"T. c #CB8D83",
"R. c #C88C88",
"E. c #C49483",
"W. c #CC9483",
"Q. c #C59B85",
"!. c #CC9B86",
"~. c #CD958A",
"^. c #C59C8B",
"/. c #CD9B8B",
"(. c #C4928D",
"). c #D19583",
"_. c #D29985",
"`. c #D29B8C",
"'. c #D3958A",
"]. c #C39D92",
"[. c #CC9E92",
"{. c #CC9392",
"}. c #D29D92",
"|. c #D69995",
" X c #CAA38B",
".X c #D4A48C",
"XX c #D9A489",
"oX c #C3A395",
"OX c #CCA294",
"+X c #C4A59A",
"@X c #CBA59A",
"#X c #C6A99D",
"$X c #CBAA9D",
"%X c #CCAA97",
"&X c #D4A494",
"*X c #D5A995",
"=X c #D4AA9C",
"-X c #DAAC9D",
";X c #D8A696",
":X c #D7B19D",
">X c #CCB29F",
",X c #E2B19E",
"<X c #C5ACA3",
"1X c #CBADA3",
"2X c #C6AAA6",
"3X c #D3ADA3",
"4X c #DBAEA4",
"5X c #D6ABA8",
"6X c #CCB2A5",
"7X c #CBB2AB",
"8X c #C6B4A8",
"9X c #D4B3A4",
"0X c #DAB3A4",
"qX c #D4B5AB",
"wX c #DBB5AB",
"eX c #D5B9AC",
"rX c #DCBAAC",
"tX c #D9B8A7",
"yX c #CCB9B5",
"uX c #D4BCB4",
"iX c #DCBDB2",
"pX c #D4BCB9",
"aX c #C8ADB2",
"sX c #E2BCAC",
"dX c #EBBCAB",
"fX c #E4B6A6",
"gX c #E2BDB2",
"hX c #E7BCB6",
"jX c #F5BBAE",
"kX c #DBC3AC",
"lX c #DCC2B3",
"zX c #DCC4BA",
"xX c #D6C4B9",
"cX c #DBD0BC",
"vX c #E2C3B4",
"bX c #EBC4B5",
"nX c #E3C5BB",
"mX c #E3CBBB",
"MX c #EACBB9",
"NX c #F3C8BA",
"BX c #EACBB4",
"VX c #D3BEC2",
"CX c #DBCAC4",
"ZX c #CFC5C4",
"AX c #E7CCC4",
"SX c #EAD2C5",
"DX c #F0D3CB",
/* pixels */
"                                                                                                                                ",
"                                                                                                                                ",
"                                                                                                                                ",
"                                                                                                                                ",
"                                                                                                                                ",
"                                                    $ : 6 x x x M J M n M n b K b , % :                                         ",
"                                                # % 3 x J Q Q ~ J ~ ~ ~ ~ V M I Q Q Q Q / E 8 +                                 ",
"                                                % 6 J Q Q I V V I V V V C N N C ! _ _ ) ) ) ) K 3 $                             ",
"                                              ; n K ~ M s u i M V M V ~ V V m ~ ! I ! K K H Y 1._ G 2 X                         ",
"                                            : c Q Q M < < i ~ $.$.;.$.;.;.U U $.$.I ! I m I Q Y ) ` G * X                       ",
"                                            x ) Q M u C } a.x.x.x.d.a.,.,.=.-.,.-.;.$.~ V m m M b J / P & X                     ",
"                                          5 W ( s i C d.d.M.N.N.M.B.d.d.,.,.,.,.d.,.s.s.;.N u u b b / ` x $                     ",
"                                          L Q m s 3.x.N.M.N.N.N.M.M.d.d.d.d.d.d.d.d.z.x.g.4.~ u < p a J / x # X                 ",
"                                        x ! I M -. X*X.XXX;XXXM.M.M.v.M.M.b.v.m.x.M.n.Q. XH.a.U w , , 6 W / ; X                 ",
"                                      7 / Q N -. X.X.XXX`._._.N.M.M.m.m.n.m.m.m.M.m.n.x. X Xk.k.$.< - = c W S O                 ",
"                                  X 7 L / Y I  X.X,XXXXXXX.X_.N.N.b.).m.m._.m.m.n.v.Q.n.n. X X XS.U @ * S E ) 2                 ",
"                                  8 S E Y I k.:X*X*X*X*X;XXX_._.).).).).).).).).n.).m.M. X.X.X%X^.q.m - s ^ / G .               ",
"                              X 8 H / L Q ! oX:X-X,X-X;X;X&X.X'.).).).N.).).).).W.W.m.M.!..XOX%XOXF.$.< 4 F ` / %               ",
"                              , D J H J Y 5.lXwX:X0X0X-X-X-X;X`._._.)._._._.).m.m.W.!.)._..X=X=X0X#XU.m - D ' ` 5               ",
"                            , J v b c I Y I.gXgX0X0X9X=X-X-X-X.X`.'.`._._._.!.W.).!.!._./.%X9X3XeX8XlX4.< v / V.K X             ",
"                            J I n a D J _ 6XeXgX0XwX0X=X;X-X&X&X`.`.`.`.'.!.!.m._.Q./.`./.$X9X3X7XxXpX2Xu p W ` ` :             ",
"                          c m M 8 c F F 5.$XiXiXrXwX0X&X&X&X&X`.`./.`.`.'.~.!.!.!.!././.&X%X6X3XyXCXpXuXI s ` ' ) A             ",
"                        & H a v S J D Q A.1XvXwX0X0X-X*X&X}.`.}././.|.`.}./././.!.!./. XOXOX@X1XpXZXVXZX1.p ` ' ) / X           ",
"                        3 D Y I P 8 Y Y L.eXrXsX9X9X0X;X&X`.'._.W./.`.`./.!.~.!.Q./.~./.[.}.}.$XpXaXVXZX6.v ) ` ) i.3           ",
"                        6 H F m S S D 1.1XeXrXrX-X=X4X=X@X-X;XW.`.`./.~.W.W.'.~.W.W.Q.E./.OX@X3X7XyXyXpX5.p / ' ' ` G           ",
"                        4 a Y I 6 Z p A.rXqXiXrXwX0X3X=X3X}.`.`./.[.}.!.W.W.~.W.W.W.!.E./. X@X1X8XaXaXyX5.a F ^ ' V.^ o         ",
"                        4 u N F , a T 1XgXrXiXiX+XD.H.@X3X&X&XOX[.}./.!.!.!..X/.T.E./.Q./.[.@X$X1X8X2XaX_ 7 8 G / ` ` $         ",
"                        % p m U F p A.gXwXvX6XJ.4.o.$.4.f.k.S.^.E.[././.&X'.`.E.~.!.&X/.OX&X@X1X2X2XaXK.R 4 3 8 P ) p.*         ",
"                          p V p.( F 2XwX9XiXA.1.o.U R j j B B %.S.E.W.T.T.W.`.'.`./.OX/./.OX@X+X1X2X#XA.F 4 = 5 x / Z.8         ",
"                          < I A.Y T wX9XqX1XD.A.].5.4.T N C C g *.h.T.'.T.v.W.j.E.x./.OX@XOX$X1X2X1X#X5.v 4 O 3 6 P C.S         ",
"                          4 3.D.K A.iX5X=XoXOX#Xo.R R R U 2.2...=.z.l.T.t.q.0.7.8.4.s.k.E.G.@XqX7X#X<X1.4 1 & & 1 8 / A         ",
"                          4 D.A.K D.fXsX%X Xx.=.5.3.m = I T =.O.9.R.v.v.w.&.X.B f y C R o.=.A.#XaXI.8X( @ & 1 & & 3 P 8         ",
"                          D T.3.) @XhXiXwX&X!.x.x.x.9...=.R N  .4.4X}.E.q.%.{ ;...B y w M B $.L.2XI.1X3.* O @ = 1 1 P 5         ",
"                          ! t.$.Z.5X5X@XsX-XfXE.h.h.e.2.2.U ..2.F.4X}./.l...X.=.U ..*.$.;.C j ! K.K.2X5.1 1 * 1 & 8 E 1         ",
"                          _ b.B L.-X;XfX-X`.,X/.f.z.0.*.=.o.o.e.J.5X}.!.4.f y w - < F R 2.=.o.~ g.K.7X5.3 1 1 5 4 v L O         ",
"                          u `..XkX;X-XsXfX~.`.,Xv.d.d.0.%.2.S.{.2X4X'.E.,.{ N N 7 H p.u i ;.e.4.r.].2X6.8 5 8 8 a 7 a o         ",
"                        , a.dXfX*X.X-X:XdXr.l.,X!.z.d.b.u.R.|.}.-X;XT.W.0...B o. .O.2.2...O.*.e.>.4X2XY 8 a v S 6 6 6           ",
"                        9XBXdX.X X*XdXbX'.=.S.T.`._.b.m.R.{.R.{.`.`.v.~.l.>.{ } O.:.2.0.f.q./.].X.jX7XS v H a D 7 8 *           ",
"                    ! cXbXkX-X%XfXdXvX:X&.t.-Xc.R.'.).u.t.c.{.|.'.~.T.R.j.v.%.} ;.,.%.-.s.,.4XwXh.4XxXP ! Y v a 6 = .           ",
"                  L vXBXNX*X&XMXtXdXBX-.k -XfXc.c.'.w.+.@.c.R.{.~.T.c.E.^.c.b.,.:.:.<.q.b.>.].AX-X].DX/ 1.m 8 8 &               ",
"                u xXxXNX-X/.mXCXbXvXeX0 8.bX,Xq.y.<.[ +.7.R.R.{.|.R.R.(.{.e.w.u.c.u.u.m.l.%.b.gXCX5XbXp.( S c *                 ",
"                L.eXzXgXS.0XmXxXNXBXU 0 =X:X,Xw.[ ] [ @.t.|.{.R.u.R.R.R.R.7. .y.u.u.b.u.fXc...sXSXtX%XlX6.a x o                 ",
"              : zXzXDX@X*XNXnXmXjXk.< OX9X:X-X} d l +.O.7.S.S.5X'.R.R.u.R.t.] #.u.u.b.y.E.dX*.s.BXNX:XBXZ.@ 2 O                 ",
"              5 pXuXMXJ.=XvXlXnX|.g x.MXrXsX9.q 0 r R 2.7.e.5.S.R.u.R.c.t.u.[ ] <.u.b.@.W.NX-X9.fXMXkXrXDXS 2                   ",
"              * yXuXiX9X9XvXgXiXy.s.DX4XsXvXo.0 q d  .7.e.e.7.e.7.7.7.O.o.@. .] #.u.u.#.:.4XNX X XBXcXkXSXZ.8 +                 ",
"              + p.2XeX1X7X6X1X9X>.%XrX3XrX#Xy 0 q d  .7.e.e.2.2.e.0.&.=.2.2. .[ | y.:.#.h -XbXfX XkXSXzXzX8XE 2                 ",
"                a L.iX1X+X+X1X9Xq.OX9XwXhX@Xe y 0 e R @.j.S.e.5.f.z.e.e.e.2. .k h X.:.{ X.BXcXDX^.tXSXxXlXCXC.A                 ",
"                  Z.J.3X7X3X$X>Xq.OXeX5X2XpXU q q 0 0 k k 2.e.t.k.S.z.e.2.O.o.k f l | r { vXcXAX@X*XzXkX7XAXZ.Z                 ",
"                  a D.8X7X8X#X0Xr.].wX].1XgX=.z l r C r h k  .@.@.7.w.0.q.X.B { g d k y q tXMXvX4X6XxX>X9XuXZ.Z                 ",
"                    A.8XxXeX1X5XS.F.3X].$X1Xf.r l t } O.@.2.O. . . .B k k B f f B g k g s.MXmXtX=XqX8XeXrX6XZ.9                 ",
"                    ( 2XuXuX6XqX].S.9X[.1X1X4X..t t } <.q.S.h.2.2.2.o.X. .B g t j j d f.MXSX9XiX XoXoX>XoXL.=                   ",
"                    4 K.AXnXrX9X@X+XwX].].qX9X X] h C X.&.4.r.h.e.t.h.h.>.B C h f o.l.NXSXvX>X+XU.U.H.H.K.m @ =                 ",
"                      Z.7XqXqXqX5XrX4XOX@X5X4XsX:.{ | X.:.=.2.8.7.8.0.:.} | C z { ;X0XBXsXtX+XoX%XU.s.H._ @ %                   ",
"                      a K.7X2XwX9XwX^.oX3X4XwXiXM.h X.:.8.q.0.7.8.7.:.X.{ B 0 h fXsXBXbXsX%XoXoXx. XoX1.@ +                     ",
"                      O p.qX+X].$XOXF.oX6X5XwX9X%X%.+.>.8.q.r.8.7.>.O.#.] r g 0XvXMXrXMX9XoXoX#XI.L.p.%                         ",
"                        I K.5X].6X XoXI.<X3X1XqXkX&XX.q.r.c.c.r.e.w.X.k h >.;XbXMXSXmXrX1XoX1XI.#XD.*                           ",
"                        O Z.oX.XoXJ.+X#X+X+X$XqXyXgX8.:.t.r.r.r.c.:.+.:.*XbXSXmXnXnXiX1XP.>X#XJ.yX4 . $                         ",
"                          ! G.H.].].oXG.+XH.+XuXuXiX&X..&.r.0.w.+.O.E.MXbXlXzXAXlXeX1XG.U.G.F.+XL @                             ",
"                          = A.F.H.G.H.H.+XG.#XqXpXqX5Xk.y B ....j.bXNXzXxXDXzXqX>XU.k.x.k.k.oXT .                               ",
"                            ! %XH.G.G.G.G.oXJ.7XuXuXqX{.g - C E.NXvXzXAXCXxXiX7XU.x.k.9.f.F.! @                                 ",
"                            < L.oX+XoXG.H.J.J.7X8XeX3X[.B 0 [.vXvXmXSXxXAXlX6X#Xf.s.9.9.s.! @                                   ",
"                              Y oXP.oX XJ.].J.2X8X#X5XR. .q.bXnXmXSXzXeXxX9XU.s.,.*.=.4.m @                                     ",
"                              % g.oXJ.G.1X+X#X#X1X$X1Xl.%.'.hXAXzXzXkXcXkX#Xk.a.-.-.$.p                                         ",
"                                1.6XP.J.oX+X#X1X+X1XoXe.,.dXMXCXzXzXxXY.I.U.k.s.4.$.p                                           "
};
